<svg xmlns="http://www.w3.org/2000/svg" fill="#f2e9e4" height="24" viewBox="0 -960 960 960" width="24"><path d="M263.077-198.461q-56.77 0-96.846-40.077-40.077-40.077-40.077-96.847 0-53.692 37.769-91.461t91.462-37.769q38 0 69.538 20.115 31.539 20.115 48.231 55.115l15.385 36.846h38.922q32.001 0 54.078 22.577 22.076 22.577 22.076 54.577 0 32.001-22.461 54.462-22.462 22.462-54.462 22.462H263.077Zm317.231-108.923q-12.385-51.462-50.193-87.424-37.807-35.961-89.038-36.5-16.769-49.538-58.962-78.731-42.192-29.192-92.884-31.5 19.846-62.23 72.461-100.346Q414.308-680 480-680q83.077 0 141.539 58.461Q680-563.077 680-480q0 53.462-27.115 99.346-27.116 45.885-72.577 73.27ZM447-730.077v-161.385h66v161.385h-66Zm232.846 96.539-46.308-47.078 113.847-114.307 46.538 47.308-114.077 114.077ZM730.077-447v-66h161.385v66H730.077Zm17.308 281.154L633.538-280.154l47.078-47.077 114.307 113.846-47.538 47.539ZM280.923-632.769 165.307-748.385l48.078-45 113.846 114.308-46.308 46.308Z"/></svg>