<svg xmlns="http://www.w3.org/2000/svg" fill="#f2e9e4" height="24" viewBox="0 -960 960 960" width="24"><path d="M446-84v-169.692l-132 132L265.692-168 446-348.308V-446h-95.692L168-265.692 121.692-314l134-132H84v-66h171.692l-134-134L168-694.308 350.308-512H446v-99.692L265.692-792 314-838.308l132 132V-876h66v169.692l134-132L694.308-792 512-611.692V-512h97.692L792-694.308 838.308-646l-134 134H876v66H704.308l134 132L792-265.692 609.692-446H512v97.692L694.308-168 646-121.692l-134-132V-84h-66Z"/></svg>