<svg xmlns="http://www.w3.org/2000/svg" fill="#f2e9e4" height="24" viewBox="0 -960 960 960" width="24"><path d="M447-730.077v-161.385h66v161.385h-66Zm232.846 96.539-45.308-45.308 112.308-116.077 47.077 47.308-114.077 114.077ZM730.077-447v-66h161.385v66H730.077ZM447-68.538v-160.616h66v160.616h-66ZM281.692-634.77 164.077-746.846l50.077-45.308 113.077 112.308-45.539 45.077Zm465.923 468.692L634.538-281.154l45.078-44.308 113.538 112.847-45.539 46.538ZM68.538-447v-66h161.385v66H68.538Zm143.847 281.923-44.539-49.077 111.308-111.308 23.384 22.924 24.154 24.154-114.307 113.307ZM480.181-280q-83.258 0-141.72-58.28Q280-396.561 280-479.819q0-83.258 58.28-141.72Q396.561-680 479.819-680q83.258 0 141.72 58.28Q680-563.439 680-480.181q0 83.258-58.28 141.72Q563.439-280 480.181-280Z"/></svg>