<svg xmlns="http://www.w3.org/2000/svg" fill="#f2e9e4" height="24" viewBox="0 -960 960 960" width="24"><path d="m512.846-27 77.461-88.154-80-40L595.231-253h34.923l-78.461 88.154 80 40L546.769-27h-33.923Zm-242 0 78.461-88.154-80-40L354.231-253h34.923l-78.461 88.154 80 40L305.769-27h-34.923ZM300-337q-89.308 0-151.154-61.846Q87-460.692 87-550q0-80.615 53.808-140.231 53.807-59.615 134.5-71.308 31.692-57.23 84.846-89.346Q413.308-883 480-883q87.154 0 151.539 58.115 64.384 58.116 79.538 142.346 74.615 8.462 118.269 57.731Q873-575.539 873-510q0 71.539-50.731 122.269Q771.539-337 700-337H300Z"/></svg>